<?xml version="1.0" encoding="utf-8"?>
<!-- Generator: Adobe Illustrator 24.0.3, SVG Export Plug-In . SVG Version: 6.00 Build 0)  -->
<svg version="1.1" id="Layer_1" xmlns="http://www.w3.org/2000/svg" xmlns:xlink="http://www.w3.org/1999/xlink" x="0px" y="0px"
	 viewBox="0 0 400 1920" style="enable-background:new 0 0 400 1920;" xml:space="preserve">
<style type="text/css">
	.st0{clip-path:url(#SVGID_2_);}
	.st1{fill:#F05424;}
	.st2{fill:none;}
</style>
<title>florals</title>
<g>
	<defs>
		<rect id="SVGID_1_" x="-131.6" y="-577.6" width="443.9" height="1847.7"/>
	</defs>
	<clipPath id="SVGID_2_">
		<use xlink:href="#SVGID_1_"  style="overflow:visible;"/>
	</clipPath>
	<g class="st0">
		<path class="st1" d="M300.7,18.3c10.2-8.8,13.6-19.5,9.3-32c-0.1-0.4-1.2-3.1-3-6.7c-3.8-7.7-10.8-19.7-18.8-23.2
			c-11-4.8,5.6,14.1,9.6,21.2c2.6,4.5,4.6,9.3,5.9,14.4c1.8,8.2-0.8,14.5-5.9,19.1c-15.8,14-38.7,17.3-38.1,18.7
			c0.5,1.2,7.9,3.7,12.5,2.8C283.6,30.1,291.7,26.1,300.7,18.3"/>
		<path class="st1" d="M300.9,18.6c10.4-8.9,13.9-19.7,9.5-32.4c-0.1-0.4-1.2-3.1-3-6.8c-3.8-7.8-11-20-19.1-23.5
			c-11.1-4.8,5.7,14.3,9.8,21.4c2.7,4.5,4.7,9.4,6,14.5c1.8,8.3-0.8,14.7-6,19.3c-16.1,14.2-39.4,17.5-38.7,18.9
			c0.5,1.2,8,3.7,12.7,2.8C283.6,30.5,291.8,26.4,300.9,18.6"/>
		<path class="st1" d="M222.8,166.9c7.7-17,13.5-25.9,33.2-28.9c6.6-1,13.2-2.2,19.7-3.8c8.3-1.9,16.2-5.9,20.4-12.6
			c5.8-9,6.7-20.2,2.4-30c-6.2-15.1-14.7-28.6-27.5-39.7c-45.6-39.2-109.8-17.2-148.9-18.2C107.3,33.3-38.1,12.4-40.2,14.8
			c14.9,3.6,134.5,28.1,168.9,28.4c26.2,0.2,93.2-11.3,118.9,4.5c23.8,14.6,35.2,30.5,43.7,54.1c8.7,24.1-38.7,29.5-46.5,30.8
			c-10.5,1.7-16.6,7.9-21.9,16c-6.5,10-10.8,20.7-14.7,31.8c-2.7,7.8-7.6,13.6-14.8,18.4c-8.3,5.6-17.7,8.1-26.9,9
			c-25.5,2.6-39.8-1.4-51.7-24.9c-4.6-9.1-7.8-18.8-11.7-28.2c-3.4-7.9-7.2-15.7-10.5-23.6c-9.5-22.4-37.9-31.9-51.2-39
			C32.5,87.2-11,43.7-16.5,36.5c-1.4,2.9,35.1,49.7,37,51.4c14.4,13.3,31,15,47.2,27.9c6.2,5,14.3,12.8,17.4,19.3
			c6.1,12.8,10.9,26.1,16.2,39.1c4.5,10.8,9.3,21.4,17.9,30.1c5.3,5.4,12.1,9.2,19.5,10.7c18.1,4,35.4,1.8,52.2-5.4
			C217,198.5,218.9,175.5,222.8,166.9"/>
		<path class="st1" d="M223,167.1c7.7-17.1,13.6-26,33.4-29.1c6.6-1,13.2-2.3,19.8-3.8c8.3-2,16.3-5.9,20.5-12.7
			c5.8-9,6.7-20.3,2.4-30.1c-6.2-15.2-14.8-28.8-27.6-39.8c-45.8-39.4-110.2-17.2-149.4-18.2C107,33-38.9,12-41.1,14.3
			c14.9,3.6,135,28.2,169.5,28.5c26.3,0.2,93.6-11.3,119.3,4.5c23.9,14.6,35.4,30.7,43.8,54.3c8.7,24.3-38.8,29.6-46.7,30.9
			c-10.5,1.7-16.7,7.9-22,16.1c-6.5,10-10.9,20.8-14.7,31.9c-2.7,7.9-7.6,13.6-14.9,18.5c-8.3,5.6-17.8,8.1-27,9
			c-25.6,2.6-39.9-1.4-51.9-25.1c-4.6-9.1-7.8-18.9-11.8-28.3c-3.4-8-7.2-15.8-10.5-23.7c-9.4-22.5-38-32.1-51.3-39.2
			c-8.9-4.8-52.5-48.5-58-55.6C-18.6,39.1,18.1,86,20,87.8c14.5,13.4,31.1,15,47.4,28c6.3,5,14.3,12.8,17.4,19.4
			c6.1,12.8,10.9,26.2,16.3,39.3c4.5,10.9,9.3,21.4,17.9,30.2c5.3,5.5,12.1,9.2,19.6,10.7c18.2,4.1,35.5,1.8,52.4-5.4
			C217.2,198.8,219.1,175.7,223,167.1"/>
		<path class="st1" d="M95.3,235.4c5.9-9.4,5.6-19,2.4-28.9c0,0-1.6-6.4-9.4-7.5c-0.8,1.6,1.4,7.9,1.8,9c2.9,8.4,1,16.1-3.4,23.6
			C78.9,245,52.2,261,37.9,253.4c-11.4-6-17-16.3-20.8-27.8c-5-14.7-3.5-29.2,0.3-43.9c4.2-16.6,4.5-33.1-5.6-48.3
			c-2.2-3.3-4.6-6.4-7-9.5c-1.9-2.6-3.8-5.2-5.6-7.8v0.1c-0.3,4.3-1.1,8.5-2.2,12.7c1.4,1.8,2.8,3.6,4.2,5.4
			c10.2,12.6,11.2,27,8.1,41.6c-2.5,11.9-5.3,23.4-3.9,35.9c1.7,14.7,6.8,27.7,16.1,39.2c10.4,12.7,23.2,16.2,39,11
			C75.2,257.1,87,248.6,95.3,235.4"/>
		<path class="st1" d="M95.7,235.4c6-9.5,5.7-19.2,2.4-29.3c0,0-1.6-6.5-9.5-7.6c-0.8,1.6,1.4,8,1.8,9.1c2.9,8.5,1,16.3-3.4,23.9
			c-7.9,13.6-34.8,29.8-49.2,22.1c-11.5-6.1-17.1-16.5-21-28.1c-5-14.9-3.5-29.6,0.3-44.4c4.2-16.8,4.5-33.5-5.6-48.9
			c-2.2-3.3-4.6-6.4-7-9.6c-2-2.6-3.8-5.2-5.6-7.9v0.1c-0.3,4.3-1.1,8.6-2.3,12.8c1.4,1.9,2.8,3.7,4.3,5.5
			c10.3,12.8,11.3,27.3,8.1,42.1c-2.5,12-5.3,23.7-3.9,36.3c1.7,14.9,6.8,28.1,16.2,39.7c10.5,12.9,23.4,16.4,39.4,11.1
			C75.5,257.4,87.5,248.7,95.7,235.4"/>
		<path class="st1" d="M80.4,279.8c3.4,3.8-0.4,7.8-3.9,8.5c-3.7,0.7-5.8-1.7-5.9-4.5c-0.1-2.5,1.5-5.6,4.4-5.9
			C77,277.8,78.9,278.5,80.4,279.8"/>
		<path class="st1" d="M80.7,279.6c3.6,4.1-0.4,8.4-4.2,9.1c-4,0.7-6.3-1.8-6.4-4.9c-0.1-2.7,1.6-6,4.7-6.4
			C77,277.3,79.1,278.1,80.7,279.6"/>
		<path class="st1" d="M108.3,264.6c-3.6,0.8-5.6-1.6-5.9-3.7c-0.3-2.4,2.6-5.9,6.1-5.9c1.9,0.2,3.5,1.3,4.4,2.9
			C114.2,260.9,111.7,263.8,108.3,264.6"/>
		<path class="st1" d="M108.4,265c-3.9,0.9-6-1.7-6.4-4c-0.4-2.6,2.9-6.4,6.6-6.4c2,0.2,3.8,1.4,4.8,3.2
			C114.7,261,112,264.2,108.4,265"/>
		<path class="st1" d="M36.6,285.8c-0.6-2.4,2.6-4,4.2-4.6s4.1,0,4.4,2.4c0.1,1.3-0.3,2.7-1.2,3.6C41.4,289.2,37.5,288.8,36.6,285.8
			"/>
		<path class="st1" d="M36.2,285.9c-0.7-2.7,2.9-4.5,4.6-5.1s4.6,0,4.8,2.7c0.1,1.5-0.4,3-1.4,4.1C41.4,289.8,37.1,289.3,36.2,285.9
			"/>
		<path class="st1" d="M-55,477.7c3-0.3,6-0.3,9-0.2c7.8,0.3,18.7,1.7,25,5c12.4,6.3,24.2,13.8,36.3,20.8c10,5.8,20.1,11.1,32,12.9
			c7.3,1.2,14.7,0.2,21.4-2.8c16.3-7.1,28-18.5,36.5-33.5c13.1-23.1,0.5-41.8-1.8-50.6c-4.5-17.3-5.5-27.3,7.7-40.8
			c4.4-4.5,8.7-9.2,12.7-14c5.1-6.1,8.8-13.6,7.9-21.1c-1.3-10.1-6.7-18.6-16.5-24.3c-14-8.1-28.7-13.6-45.2-14.8
			c-22.4-1.6-41.3,5-57.9,15c-1.8,4.3-4.7,8-8.3,10.8c-1.6,4.4-4.4,8.3-8,11.4c-1,2-2.2,3.9-3.6,5.6c19.1-16,40.6-31.6,57.3-33
			c27-2.2,45.5,3.5,66.3,16.8c21.4,13.6-11.5,44.3-16.7,49.7c-7,7.2-7.8,15.4-6.9,24.6c1.1,11.2,4.4,21.9,8.2,32.5
			c2.7,7.5,2.5,14.6,0,22.4c-2.9,8.9-8.6,16.1-15,22c-17.9,16.3-31.2,21.3-54.6,10c-9-4.4-17.4-10-26.1-15
			c-7.4-4.2-15.1-8-22.4-12.1c-11.1-6.3-24.1-6.8-36-5.5C-53.8,472.4-54.2,475.1-55,477.7"/>
		<path class="st1" d="M-55.7,477.9c3-0.3,6.1-0.3,9.1-0.2c7.9,0.3,18.8,1.8,25.2,5c12.5,6.4,24.3,13.9,36.5,20.9
			c10.1,5.8,20.2,11.2,32.2,13c7.3,1.2,14.8,0.2,21.5-2.8c16.4-7.1,28.2-18.6,36.7-33.6c13.2-23.2,0.5-41.9-1.8-50.8
			c-4.5-17.4-5.5-27.5,7.7-41c4.4-4.5,8.7-9.2,12.8-14c5.1-6.2,8.8-13.6,7.9-21.2c-1.3-10.1-6.7-18.7-16.6-24.4
			c-14-8.1-28.9-13.7-45.5-14.9c-22.5-1.6-41.5,5-58.2,15.1c-6,3.9-22.5,18.1-26.3,21.1c-1.6,4.3,13.7-1.9,10,1.3
			c-1,2-2.2,3.9-3.7,5.7c19.3-16,40.9-31.8,57.6-33.2c27.2-2.2,45.8,3.6,66.7,16.9c21.5,13.6-11.5,44.5-16.8,49.9
			c-7,7.2-7.9,15.5-6.9,24.7c1.1,11.3,4.4,22,8.3,32.6c2.7,7.5,2.5,14.7,0,22.5c-2.9,8.9-8.6,16.2-15.1,22.1
			c-18,16.4-31.4,21.3-55,10c-9.1-4.4-17.5-10-26.3-15c-7.4-4.2-15.2-8-22.6-12.2c-11.2-6.3-24.2-6.8-36.2-5.5
			C-54.4,472.6-54.8,475.3-55.7,477.9"/>
		<path class="st1" d="M-58.8,546c0.1,0.9,0.2,1.8,0.2,2.7c1.8,2.6,3.4,5.3,4.9,8.2c5.3,10.4,10.1,20.7,18.8,29.3
			c9.8,10.1,22.3,17.3,36,20.6c15.6,3.8,27.6-0.8,36.5-13.6c8.3-12,12.1-25.1,10.5-39.7c-1.2-10.4-7.2-17.5-15.7-23.2
			c-3.5-2.4-8.1-2.5-11.7-0.4c0.4,1.7,5.9,5.2,6.8,5.8c7.3,4.8,10.5,11.7,11.7,19.8c2.2,14.5-8.5,41.6-24,43.9
			c-12.4,1.8-22.8-2.8-32.7-9.3c-12.8-8.3-20.4-20.2-26.4-33.4c-3.7-8-8.2-15.3-14.2-21.3C-57.7,538.9-57.9,542.5-58.8,546"/>
		<path class="st1" d="M-59.2,545.8c0.1,0.9,0.2,1.8,0.2,2.7c1.8,2.6,3.5,5.4,4.9,8.2c5.3,10.5,10.2,20.9,19,29.6
			c9.9,10.2,22.5,17.4,36.3,20.9c15.8,3.9,27.8-0.8,36.8-13.7c8.4-12.1,12.3-25.4,10.6-40.1c-1.2-10.5-7.3-17.7-15.9-23.5
			c-3.5-2.4-8.1-2.6-11.8-0.4c0.4,1.7,5.9,5.2,6.9,5.8c7.4,4.8,10.6,11.8,11.9,20c2.2,14.7-8.5,42-24.2,44.4
			c-12.5,1.9-23-2.8-33-9.4c-12.9-8.4-20.5-20.4-26.6-33.7c-3.7-8.1-8.3-15.5-14.3-21.5C-58.2,538.7-58.3,542.3-59.2,545.8"/>
		<path class="st1" d="M63.7,595.7c4.8,1,4.4,6.1,2.2,8.6c-1.6,2-4.5,2.2-6.5,0.6c-0.3-0.2-0.5-0.5-0.7-0.7c-1.6-1.8-2.3-5-0.3-6.9
			C59.9,596,61.8,595.5,63.7,595.7"/>
		<path class="st1" d="M63.8,595.3c5.3,1.1,4.8,6.7,2.4,9.3c-1.7,2.1-4.9,2.5-7,0.7c-0.3-0.2-0.6-0.5-0.8-0.8
			c-1.7-2-2.5-5.4-0.3-7.5C59.7,595.7,61.8,595.1,63.8,595.3"/>
		<path class="st1" d="M75.7,568.3c-1.5,2-4.3,2.3-6.2,0.9c-0.2-0.1-0.3-0.3-0.5-0.4c-1.7-1.7-1.6-5.9,1-7.8
			c1.6-0.9,3.5-0.9,5.2-0.2C77.9,562.2,77.8,565.8,75.7,568.3"/>
		<path class="st1" d="M76,568.5c-1.6,2.1-4.7,2.6-6.9,0.9c-0.2-0.1-0.3-0.3-0.5-0.4c-1.9-1.8-1.7-6.4,1.1-8.5
			c1.8-0.9,3.8-1,5.7-0.3C78.5,561.9,78.3,565.9,76,568.5"/>
		<path class="st1" d="M33.9,624.7c-2-1.5-0.5-4.5,0.4-5.8c0.9-1.5,2.8-1.9,4.3-1c0.2,0.1,0.4,0.3,0.5,0.4c0.9,0.9,1.4,2.2,1.3,3.5
			C39.7,624.7,36.3,626.5,33.9,624.7"/>
		<path class="st1" d="M33.6,625c-2.2-1.6-0.5-4.9,0.4-6.4c1-1.6,3.2-2.1,4.8-1.1c0.2,0.1,0.4,0.3,0.6,0.4c1,1,1.6,2.4,1.5,3.8
			C40,625.1,36.3,627.1,33.6,625"/>
		<path class="st1" d="M-58.1,866.7c2.1-2.1,4.4-4,6.8-5.8c6.2-4.6,15.5-10.3,22.6-11.7c13.8-2.9,27.9-4.5,41.9-6.6
			c11.6-1.8,23-4,33.3-10c6.3-3.5,11.4-8.9,14.5-15.5c7.7-15.6,9-31.7,5.3-48.4c-5.6-25.9-27.9-32.4-35.6-37.7
			c-15.2-10.5-22.7-17.6-21.8-36.1c0.4-6.2,0.5-12.4,0.3-18.6c-0.2-7.9-2.5-15.9-8.3-21.1c-7.8-7-17.7-10.1-29.1-8.4
			c-16.2,2.5-31.3,7.4-44.7,16.8c-18.2,12.6-28.2,29.6-34.2,47.6c1.5,4.3,1.8,9,1,13.5c1.7,4.3,2.3,9.1,1.6,13.7
			c0.6,2.1,1,4.4,1,6.6c3.9-24.2,9.7-49.6,21.5-61c19.2-18.5,37.3-25.6,62.3-28.4C5.9,652.6,1.6,696.6,1.2,704
			c-0.5,9.8,4.4,16.7,11.4,23.2c8.5,7.9,18.2,14.1,28.3,19.8c7.2,4.1,11.8,9.7,15.2,17.2c3.8,8.6,4.3,17.7,3.4,26.2
			c-2.6,23.6-9.5,35.7-35.1,41.7c-9.9,2.3-20.1,3.2-30.2,4.8c-8.5,1.4-17,3.3-25.4,4.7c-12.8,2.1-23.1,9.8-31.4,18.2
			C-60.8,861.7-59.3,864.1-58.1,866.7"/>
		<path class="st1" d="M-15.9,920.7c0.7,0.6,1.4,1.3,2,2c3.2,0.9,6.3,2,9.4,3.3c11.2,4.7,22.1,9.6,34.6,10.9
			c14.9,1.5,28.8-0.5,42.1-6.6c14.7-6.8,20.9-17.8,18.9-33.3c-1.8-14.4-7.8-27-19.1-37.2c-8.1-7.3-17.6-9-28.1-8.1
			c-4.2,0.3-7.9,3-9.3,7c1.4,1.1,8.1,0.3,9.2,0.2c8.9-0.9,16.1,2.4,22.6,7.9c11.7,9.8,21.9,37.3,11.5,48.9
			c-8.4,9.2-19.6,12.1-31.8,13.3c-15.6,1.5-29.6-2.8-43.3-9.2c-8.3-3.9-16.9-6.7-25.6-7.5C-20,914.6-17.6,917.5-15.9,920.7"/>
		<path class="st1" d="M112.1,882.2c4.7-2.4,8.2,2.1,8.1,5.6c-0.1,3.7-3.1,5.2-6.1,4.8c-2.7-0.4-5.6-2.6-5.3-5.5
			C109.2,885,110.4,883.3,112.1,882.2"/>
		<path class="st1" d="M103.4,854.2c0.2,2.6-1.8,4.8-4.4,4.9c-0.3,0-0.6,0-0.9,0c-2.7-0.2-5.7-3.9-4.9-7.2c0.7-1.8,2.3-3.2,4.1-3.7
			C100.7,847.7,103.3,850.8,103.4,854.2"/>
		<path class="st1" d="M109.1,923.6c-2.8,0.1-3.8-3.5-4.1-5.1c-0.3-1.8,0.9-3.4,2.7-3.7c0.3-0.1,0.7-0.1,1,0c1.5,0.1,2.8,0.9,3.8,2
			C114,919.6,112.6,923.4,109.1,923.6"/>
		<path class="st1" d="M-65.9,1119.2c3-0.1,6.1-0.1,9.1,0.1c7.9,0.6,18.7,2.4,25,5.9c12.2,6.8,23.8,14.7,35.7,22.1
			c9.8,6.1,19.8,11.8,31.6,14c7.3,1.5,14.8,0.7,21.6-2.1c16.6-6.6,28.9-17.6,37.9-32.3c14-22.8,2.1-41.9,0.1-50.8
			c-3.9-17.5-4.5-27.6,9.2-40.7c4.6-4.4,9-8.9,13.3-13.6c5.4-6,9.3-13.3,8.7-20.9c-0.9-10.2-6-18.9-15.7-24.9
			c-13.7-8.6-28.4-14.6-44.9-16.4c-27.7-12.1-76.1,21-93.2,30.5c-1.9,4.1,15,8.2,13.5,9.9c19.8-15.3,42-30.4,58.8-31.2
			c27.3-1.3,45.6,5.1,66,19.1c21,14.3-13.2,44-18.6,49.3c-7.3,7-8.4,15.2-7.8,24.4c0.8,11.3,3.6,22.2,7.1,32.9
			c2.5,7.6,2,14.8-0.9,22.5c-3.3,8.8-9.2,15.9-15.9,21.5c-18.5,15.8-32.2,20.3-55.3,8.2c-8.9-4.7-17.1-10.6-25.8-15.9
			c-7.3-4.5-14.9-8.5-22.1-12.9c-11-6.7-24-7.6-36-6.8C-64.5,1113.8-65,1116.5-65.9,1119.2"/>
		<path class="st1" d="M-71.9,1186.8c0.1,0.9,0.1,1.8,0.1,2.7c1.7,2.7,3.3,5.5,4.6,8.4c5,10.7,9.5,21.2,17.8,30.3
			c9.6,10.5,21.9,18.1,35.6,22c15.6,4.4,27.8,0.2,37.2-12.5c8.8-11.9,13.2-25,12-39.7c-0.8-10.6-6.7-17.9-15-24
			c-3.4-2.5-8-2.8-11.8-0.8c0.3,1.7,5.7,5.4,6.6,6.1c7.2,5.1,10.1,12.1,11.1,20.3c1.7,14.8-10.1,41.7-25.8,43.5
			c-12.6,1.4-22.9-3.6-32.7-10.5c-12.5-8.9-19.8-21.1-25.4-34.6c-3.4-8.2-7.7-15.8-13.5-22C-70.7,1179.6-71,1183.3-71.9,1186.8"/>
		<path class="st1" d="M49.2,1240.4c5.2,1.2,4.6,6.8,2.1,9.3c-1.9,2.1-5.1,2.3-7.1,0.4c-0.3-0.2-0.5-0.5-0.7-0.8
			c-1.7-2-2.3-5.5,0-7.5C45.1,1240.6,47.2,1240.1,49.2,1240.4"/>
		<path class="st1" d="M62.4,1214.1c-1.7,2.1-4.8,2.4-6.9,0.7c-0.2-0.1-0.3-0.3-0.4-0.4c-1.8-1.9-1.5-6.5,1.4-8.4
			c1.8-0.9,3.9-0.9,5.6-0.1C65.1,1207.6,64.8,1211.5,62.4,1214.1"/>
		<path class="st1" d="M17.9,1269.2c-2.1-1.7-0.3-5,0.6-6.3c1.1-1.6,3.2-2,4.8-0.9c0.2,0.1,0.4,0.3,0.6,0.5c1,1,1.4,2.4,1.3,3.9
			C24.4,1269.4,20.6,1271.3,17.9,1269.2"/>
	</g>
</g>
<path class="st1" d="M-47.3,1503.5c2.1-2.1,4.4-4,6.8-5.8c6.2-4.6,15.5-10.3,22.6-11.7c13.8-2.9,27.9-4.5,41.9-6.6
	c11.6-1.8,23-4,33.3-10c6.3-3.5,11.4-8.9,14.5-15.5c7.7-15.6,9-31.7,5.3-48.4c-5.6-25.9-27.9-32.4-35.6-37.7
	c-15.2-10.5-22.7-17.6-21.7-36.1c0.4-6.2,0.5-12.4,0.3-18.6c-0.2-7.9-2.5-15.9-8.3-21.1c-7.8-7-17.7-10.1-29.1-8.4
	c-16.2,2.5-31.3,7.4-44.7,16.8c-18.2,12.6-28.3,29.6-34.2,47.6c1.5,4.3,1.8,9,1,13.5c1.7,4.4,2.3,9.1,1.6,13.7
	c0.6,2.1,0.9,4.4,1,6.6c3.9-24.2,9.7-49.6,21.6-61c19.2-18.6,37.3-25.6,62.3-28.4c25.6-2.9,21.2,41.2,20.9,48.5
	c-0.5,9.8,4.4,16.7,11.4,23.2c8.5,7.9,18.2,14.1,28.3,19.8c7.2,4.1,11.8,9.7,15.2,17.2c3.8,8.6,4.3,17.7,3.4,26.2
	c-2.6,23.6-9.5,35.7-35.1,41.7c-9.9,2.3-20.1,3.2-30.2,4.8c-8.5,1.4-17,3.3-25.4,4.7c-12.8,2.1-23,9.8-31.3,18.2
	C-50,1498.6-48.5,1500.9-47.3,1503.5"/>
<path class="st1" d="M-5.1,1557.5c0.7,0.6,1.4,1.3,2,2c3.2,0.9,6.3,2,9.4,3.3c11.2,4.7,22.1,9.6,34.6,10.9
	c14.9,1.5,28.8-0.5,42.1-6.6c14.7-6.8,20.9-17.8,18.9-33.3c-1.8-14.4-7.8-27-19-37.2c-8.1-7.3-17.6-9-28.1-8.1c-4.2,0.3-7.9,3-9.3,7
	c1.4,1.1,8.1,0.3,9.2,0.2c8.9-0.9,16.1,2.4,22.6,7.9c11.7,9.8,21.9,37.3,11.5,48.9c-8.3,9.2-19.6,12.1-31.8,13.3
	c-15.6,1.6-29.6-2.8-43.3-9.2c-8.3-3.9-16.9-6.7-25.6-7.6C-9.1,1551.4-6.7,1554.3-5.1,1557.5"/>
<path class="st1" d="M122.9,1519c4.7-2.4,8.2,2.1,8.1,5.6c-0.1,3.7-3.1,5.2-6.1,4.8c-2.6-0.4-5.6-2.6-5.3-5.5
	C120,1521.8,121.2,1520,122.9,1519"/>
<path class="st1" d="M114.2,1491c0.2,2.6-1.8,4.8-4.3,4.9c-0.3,0-0.6,0-0.9,0c-2.7-0.2-5.7-3.8-4.9-7.2c0.7-1.8,2.3-3.2,4.1-3.7
	C111.5,1484.5,114.1,1487.6,114.2,1491"/>
<path class="st1" d="M119.9,1560.4c-2.8,0.1-3.8-3.4-4-5.1c-0.3-1.8,0.9-3.5,2.7-3.8c0.3-0.1,0.7-0.1,1,0c1.5,0.1,2.8,0.9,3.7,2
	C124.8,1556.4,123.4,1560.2,119.9,1560.4"/>
<path class="st1" d="M-55.1,1755.9c3-0.1,6.1-0.1,9.1,0.1c7.9,0.6,18.7,2.4,25,5.8c12.2,6.8,23.8,14.7,35.7,22.1
	c9.8,6.1,19.8,11.8,31.6,14c7.3,1.5,14.8,0.7,21.6-2.1c16.6-6.6,28.9-17.6,37.9-32.3c14-22.8,2.1-41.9,0.1-50.8
	c-3.9-17.5-4.5-27.6,9.2-40.7c4.6-4.4,9-8.9,13.3-13.6c5.4-6,9.4-13.3,8.7-20.9c-0.9-10.2-6-18.9-15.7-24.9
	c-13.7-8.6-28.4-14.6-44.9-16.4c-27.7-12.1-76.1,21-93.2,30.5c-1.9,4.1,15,8.2,13.5,9.9c19.8-15.3,42-30.4,58.8-31.2
	c27.3-1.3,45.6,5.1,66,19.1c21,14.4-13.1,44.1-18.6,49.3c-7.3,7-8.4,15.2-7.8,24.4c0.8,11.3,3.6,22.2,7.1,32.9
	c2.5,7.6,2,14.8-0.9,22.5c-3.3,8.8-9.2,15.9-15.9,21.5c-18.5,15.8-32.2,20.3-55.3,8.2c-9-4.7-17.1-10.6-25.8-15.9
	c-7.3-4.5-14.8-8.5-22.1-12.9c-11-6.7-24-7.6-36-6.8C-53.7,1750.6-54.2,1753.3-55.1,1755.9"/>
<path class="st1" d="M-61.1,1823.6c0.1,0.9,0.1,1.8,0.1,2.7c1.7,2.7,3.3,5.5,4.6,8.4c4.9,10.7,9.5,21.2,17.8,30.2
	c9.6,10.5,21.9,18.2,35.6,22.1c15.6,4.4,27.8,0.2,37.2-12.5c8.8-11.9,13.2-25,12-39.7c-0.8-10.6-6.7-17.9-15-24
	c-3.4-2.5-8-2.8-11.8-0.8c0.3,1.7,5.7,5.4,6.6,6.1c7.2,5.1,10.1,12.1,11.1,20.4c1.7,14.8-10.1,41.7-25.8,43.5
	c-12.6,1.4-22.9-3.6-32.7-10.5c-12.5-8.9-19.8-21-25.4-34.6c-3.4-8.2-7.7-15.8-13.5-22C-59.9,1816.5-60.2,1820.1-61.1,1823.6"/>
<path class="st1" d="M60,1877.2c5.2,1.2,4.6,6.8,2.1,9.3c-1.9,2.1-5.1,2.3-7.2,0.4c-0.3-0.2-0.5-0.5-0.7-0.8c-1.7-2-2.3-5.5,0-7.5
	C55.9,1877.4,58,1876.9,60,1877.2"/>
<path class="st1" d="M73.2,1850.9c-1.7,2.1-4.8,2.4-6.9,0.7c-0.2-0.1-0.3-0.3-0.4-0.4c-1.8-1.9-1.5-6.5,1.4-8.4
	c1.8-0.9,3.9-0.9,5.6-0.1C75.9,1844.4,75.6,1848.3,73.2,1850.9"/>
<path class="st1" d="M28.7,1905.9c-2.1-1.7-0.3-5,0.6-6.3c1.1-1.6,3.2-2,4.8-0.9c0.2,0.1,0.4,0.3,0.6,0.5c0.9,1,1.6,2.7,1.3,3.8
	C35.2,1906.2,31.4,1908.1,28.7,1905.9"/>
<polyline class="st2" points="-120.8,59.2 -120.8,1906.8 323.1,1906.8 "/>
</svg>
