<svg xmlns="http://www.w3.org/2000/svg" viewBox="0 0 1100 1000"><title>SS-LOGO</title><g id="Layer_2" data-name="Layer 2"><path d="M963.88,566.83a167.29,167.29,0,0,0-37-49.71,242.34,242.34,0,0,0-53-36.57q-9.9-5.1-20-9.73c62.91-33.78,84.3-81.76,87.67-137.76L943,291.19,945.13,255q1.79-18.78-13.51-28.18c-.74-.5-1.5-1-2.3-1.44-.58-.28-1.18-.55-1.76-.84a309.87,309.87,0,0,0-63.08-25.8q-35.65-10.32-77.84-10.32a293.77,293.77,0,0,0-77.37,10.32q-38,10.32-67.52,31.89a168.93,168.93,0,0,0-47.83,53.91Q575.65,316.9,575.64,361q0,67.51,43.61,111.6l.47.46c-33.2.84-67.31.39-100.65.39a930.57,930.57,0,0,0-97.77,4.88,496.51,496.51,0,0,0-58.05-24.78l-41.29-16q-49.75-18.76-75.08-40.83t-25.34-63.35q0-25.34,9.38-43.64a84.51,84.51,0,0,1,25.34-30,117.69,117.69,0,0,1,36.6-17.84A151.83,151.83,0,0,1,336,235.8a155.63,155.63,0,0,1,54.43,9.39q16.9,5.63,19.71,24.4l12.2,65.7q4.69,21.6,25.34,21.58h20.65q22.53,0,23.47-22.52l4.69-79.78q1.88-19.71-15-29.09a309,309,0,0,0-65.7-27.22q-35.67-10.32-77.89-10.32a294.22,294.22,0,0,0-77.43,10.32q-38,10.34-67.58,31.91a168.89,168.89,0,0,0-47.86,54q-18.32,32.37-18.3,76.49,0,67.58,43.64,111.68,25.65,25.94,62.52,47c-78.77,34-104.33,85.9-108,147.56l-2.82,79.51q0,19.71,15,28.15,33.8,16.89,77,27.22a382,382,0,0,0,89.16,10.32,311.5,311.5,0,0,0,80.71-10.79,236.31,236.31,0,0,0,72.74-32.85,175.79,175.79,0,0,0,52.56-55.84q20.16-33.78,20.18-79.78,0-37.53-14.08-66.16a167.88,167.88,0,0,0-27.61-40.28c19.91,0,39.9.11,59.63.11,48.78,0,92.2-3.27,130.66-9.08a439,439,0,0,0,60.83,29.28l39.39,14.06q18.75,6.57,37,14.54A143.75,143.75,0,0,1,848.07,595a95.05,95.05,0,0,1,23.45,27.67q8.88,15.95,8.9,38.45,0,49.73-34.7,76.43t-95.65,26.72q-10.34,0-25.79-.93a136.87,136.87,0,0,1-30-5.16A79,79,0,0,1,669,746a30.65,30.65,0,0,1-12.66-21.1L644.1,657.33q-4.71-21.57-25.33-21.57H598.15q-22.51,0-24.39,23.45L571,746.42q0,19.7,15,28.13,33.75,16.89,76.89,27.2a382.1,382.1,0,0,0,89.09,10.31,311.41,311.41,0,0,0,80.65-10.78,236.28,236.28,0,0,0,72.68-32.83,175.61,175.61,0,0,0,52.52-55.79Q977.94,678.9,978,632.94,978,595.46,963.88,566.83ZM679.74,290.18a84.35,84.35,0,0,1,25.31-30,117.31,117.31,0,0,1,36.58-17.81,151.26,151.26,0,0,1,42.4-6.09c2.2.11,4.47.24,6.85.39a135.88,135.88,0,0,1,30,5.16A79.1,79.1,0,0,1,846.26,254c2.51,1.85,6.66,3.9,10.64,8.44a37.65,37.65,0,0,1,2,7.56l1.54,8.3c10.19,82.55-21.82,132.89-82.92,162.18l-6.77-2.62q-49.73-18.75-75-40.79t-25.32-63.3Q670.36,308.47,679.74,290.18ZM397,737.45q-34.73,26.74-95.73,26.75-10.33,0-25.81-.94a136.46,136.46,0,0,1-30-5.16,79.35,79.35,0,0,1-25.34-12.2c-7.2-5.31-27.95-12.16-19-75.1,2.67-18.9,7.59-35.33,14.44-49.62,17.72-31.93,48.48-54.29,89.14-69.5l24.8,8.86q18.76,6.57,37.07,14.54a144.16,144.16,0,0,1,32.85,19.71,95.14,95.14,0,0,1,23.46,27.69q8.91,16,8.92,38.48Q431.77,710.71,397,737.45Z"/></g></svg>